<?xml version="1.0" standalone="no"?>
<svg xmlns="http://www.w3.org/2000/svg" width="303.5553365023768" height="79.91533650237679" viewBox="0 0 303.5553365023768 79.91533650237679"><path fill="#fe4e01" fill-rule="nonzero" d="M2 26.16L2.12 15.56L1.92 5.16Q0.16 5 0.16 3.50Q0.16 2 3.32 1.02Q6.48 0.04 9.86 0.04Q13.24 0.04 16.16 1.36Q19.08 2.68 20.84 4.92L20.84 4.92Q24.48 9.48 24.48 15.72L24.48 15.72Q24.48 21.80 21 26.28L21 26.28Q19.28 28.52 16.44 29.86Q13.60 31.20 9.68 31.20Q5.76 31.20 2.88 30.20Q0 29.20 0 27.64L0 27.64Q0 26.16 2 26.16L2 26.16ZM20.64 15.42Q20.64 10.56 17.78 7.02Q14.92 3.48 9.52 3.48L9.52 3.48Q7.24 3.48 5.88 4.16L5.88 4.16Q5.76 6.64 5.76 14.98Q5.76 23.32 5.96 27.20L5.96 27.20Q7.40 27.72 10 27.72Q12.60 27.72 14.70 26.68Q16.80 25.64 18.04 23.88L18.04 23.88Q20.64 20.28 20.64 15.42ZM43.86 27.72Q48.04 27.72 50.82 24.04Q53.60 20.36 53.60 15.52Q53.60 10.68 50.84 7.06Q48.08 3.44 43.86 3.44Q39.64 3.44 36.86 7.06Q34.08 10.68 34.08 15.50Q34.08 20.32 36.88 24.02Q39.68 27.72 43.86 27.72ZM53.58 4.52Q57.44 9.04 57.44 15.56Q57.44 22.08 53.54 26.64Q49.64 31.20 43.82 31.20Q38 31.20 34.12 26.64Q30.24 22.08 30.24 15.56Q30.24 9.04 34.16 4.52Q38.08 0 43.90 0Q49.72 0 53.58 4.52ZM68.88 28.68L68.88 28.68Q68.88 29.72 68.32 30.36Q67.76 31 66.86 31Q65.96 31 65.40 30.36Q64.84 29.72 64.84 29.04Q64.84 28.36 64.88 26.44L64.88 26.44Q65.04 21.96 65.04 16.78Q65.04 11.60 64.94 7.22Q64.84 2.84 64.84 2.72L64.84 2.72Q64.84 1.56 65.42 0.88Q66 0.20 66.84 0.20L66.84 0.20Q68.12 0.20 68.84 1.76L68.84 1.76L77.76 20.92Q81.44 13.16 85.88 3.24L85.88 3.24Q86.76 1.28 87.24 0.74Q87.72 0.20 88.62 0.20Q89.52 0.20 90.10 0.86Q90.68 1.52 90.68 2.72L90.68 2.72Q90.48 3.76 90.48 11.80Q90.48 19.84 90.60 24.20Q90.72 28.56 90.72 28.68L90.72 28.68Q90.72 29.72 90.16 30.36Q89.60 31 88.70 31Q87.80 31 87.24 30.36Q86.68 29.72 86.68 29.02Q86.68 28.32 86.72 26.44L86.72 26.44Q86.96 19.44 86.96 15.72L86.96 15.72L86.96 9.60L79.72 24.84Q79.04 26.24 77.88 26.24Q76.72 26.24 76 24.76L76 24.76L68.64 9.60L68.64 15.72Q68.64 19.84 68.76 24.20Q68.88 28.56 68.88 28.68ZM110.16 4.16L110.16 4.16L106.88 4Q106.72 7.88 106.72 15.14Q106.72 22.40 106.92 27.28L106.92 27.28L110.16 27.12Q111.24 27.12 111.90 27.62Q112.56 28.12 112.56 28.98Q112.56 29.84 111.90 30.34Q111.24 30.84 110.16 30.84L110.16 30.84L104.92 30.60L99.68 30.84Q98.60 30.84 97.94 30.34Q97.28 29.84 97.28 28.98Q97.28 28.12 97.94 27.62Q98.60 27.12 99.68 27.12L99.68 27.12L102.92 27.32Q103.12 22.44 103.12 15.16Q103.12 7.88 102.96 4L102.96 4L99.68 4.16Q98.60 4.16 97.94 3.64Q97.28 3.12 97.28 2.24Q97.28 1.36 97.94 0.86Q98.60 0.36 99.68 0.36L99.68 0.36L104.92 0.60L110.16 0.36Q111.24 0.36 111.90 0.86Q112.56 1.36 112.56 2.24Q112.56 3.12 111.90 3.64Q111.24 4.16 110.16 4.16ZM139.68 15.72L139.68 15.72L139.80 28.12Q139.80 31 137.68 31L137.68 31Q136.36 31 135.68 29.76L135.68 29.76L123 7.92Q123 17.24 123.10 22.80Q123.20 28.36 123.20 29.02Q123.20 29.68 122.60 30.34Q122 31 121.18 31Q120.36 31 119.78 30.34Q119.20 29.68 119.20 28.68L119.20 28.68L119.36 15.72Q119.36 11.60 119.26 7.36Q119.16 3.12 119.16 3.04L119.16 3.04Q119.16 0.20 121.20 0.20L121.20 0.20Q122.68 0.20 123.40 1.44L123.40 1.44Q135.04 21.44 136.08 23.04L136.08 23.04Q136.08 11.72 135.96 7.44Q135.84 3.16 135.84 3.04L135.84 3.04Q135.84 0.20 137.88 0.20Q139.92 0.20 139.92 3.04L139.92 3.04Q139.92 3.36 139.84 5.16L139.84 5.16Q139.68 10.48 139.68 15.72ZM160.86 27.72Q165.04 27.72 167.82 24.04Q170.60 20.36 170.60 15.52Q170.60 10.68 167.84 7.06Q165.08 3.44 160.86 3.44Q156.64 3.44 153.86 7.06Q151.08 10.68 151.08 15.50Q151.08 20.32 153.88 24.02Q156.68 27.72 160.86 27.72ZM170.58 4.52Q174.44 9.04 174.44 15.56Q174.44 22.08 170.54 26.64Q166.64 31.20 160.82 31.20Q155 31.20 151.12 26.64Q147.24 22.08 147.24 15.56Q147.24 9.04 151.16 4.52Q155.08 0 160.90 0Q166.72 0 170.58 4.52ZM183.96 2.44L183.96 2.44L183.48 6.76Q183.40 8.48 183.10 9.20Q182.80 9.92 182.04 9.92Q181.28 9.92 180.98 9.20Q180.68 8.48 180.60 6.76L180.60 6.76L180.12 2.44Q180.12 1.40 180.64 0.80Q181.16 0.20 182.04 0.20Q182.92 0.20 183.44 0.80Q183.96 1.40 183.96 2.44ZM208.64 22.44L208.64 22.44Q208.64 26.16 205.82 28.68Q203.00 31.20 198.52 31.20L198.52 31.20Q195.04 31.20 192.04 29.52Q189.04 27.84 189.04 26.24L189.04 26.24Q189.04 25.52 189.52 25.04Q190.00 24.56 190.74 24.56Q191.48 24.56 192.24 25.06Q193.00 25.56 193.64 26.14Q194.28 26.72 195.58 27.22Q196.88 27.72 198.52 27.72L198.52 27.72Q201.24 27.72 203.02 26.32Q204.80 24.92 204.80 22.44L204.80 22.44Q204.80 20.80 203.28 19.32Q201.76 17.84 199.60 16.64Q197.44 15.44 195.28 14.18Q193.12 12.92 191.60 11.10Q190.08 9.28 190.08 7.16L190.08 7.16Q190.08 4.24 192.64 2.12Q195.20 0 198.68 0Q202.16 0 204.60 1.18Q207.04 2.36 207.04 3.88L207.04 3.88Q207.04 4.64 206.56 5.08Q206.08 5.52 205.28 5.52Q204.48 5.52 203.72 5Q202.96 4.48 201.84 3.96Q200.72 3.44 198.84 3.44Q196.96 3.44 195.44 4.48Q193.92 5.52 193.92 7.04Q193.92 8.56 195.44 9.86Q196.96 11.16 199.12 12.36Q201.28 13.56 203.44 14.88Q205.60 16.20 207.12 18.16Q208.64 20.12 208.64 22.44Z" transform="translate(0 0) scale(1)"></path><path fill="#fe4e01" fill-rule="nonzero" d="M17.28 9.28L17.28 9.28Q17.28 6.64 15.28 5.04Q13.28 3.44 9.48 3.44L9.48 3.44Q7.60 3.44 5.60 4.16L5.60 4.16Q5.48 7.76 5.48 11.02Q5.48 14.28 5.52 14.80L5.52 14.80Q7.44 14.44 9.12 14.44Q10.80 14.44 12.92 14.80L12.92 14.80Q14.36 14.40 15.82 12.78Q17.28 11.16 17.28 9.28ZM22.28 27.56L22.28 27.56L22.92 27.48Q23.28 27.48 23.28 28.44Q23.28 29.40 22.44 30.20Q21.60 31 20.56 31L20.56 31Q18.76 31 17.12 28.68L17.12 28.68Q15 25.80 11.72 18.56L11.72 18.56Q9.92 18.80 7.64 18.80L7.64 18.80L5.56 18.64Q5.56 21.44 5.68 24.30Q5.80 27.16 5.80 28.36L5.80 28.36Q5.80 31.20 3.76 31.20Q1.72 31.20 1.72 28.36L1.72 28.36Q1.72 26.76 1.86 22.72Q2 18.68 2 14.82Q2 10.96 1.76 5.52L1.76 5.52Q0 5.16 0 3.72L0 3.72Q0 2 3.32 1Q6.64 0 9.24 0L9.24 0Q15.08 0 18.10 2.62Q21.12 5.24 21.12 9.04L21.12 9.04Q21.12 11.48 19.48 13.82Q17.84 16.16 15.20 17.40L15.20 17.40Q17.04 21.64 18.54 24.04Q20.04 26.44 20.80 27Q21.56 27.56 22.28 27.56ZM45.12 4.12L45.12 4.12L38.76 3.88Q35.68 3.88 33.28 4.08L33.28 4.08L33.28 12.96Q34.04 13 35.92 13L35.92 13L43.08 12.80Q44.16 12.80 44.80 13.30Q45.44 13.80 45.44 14.64L45.44 14.64Q45.44 16.40 43.08 16.40L43.08 16.40L35.92 16.24Q34.20 16.24 33.28 16.28L33.28 16.28L33.28 19.44Q33.28 25.28 33.44 27.12L33.44 27.12Q35.84 27.32 38.88 27.32L38.88 27.32Q38.88 27.32 45.24 27.08L45.24 27.08Q46.32 27.08 46.98 27.58Q47.64 28.08 47.64 28.96Q47.64 29.84 46.98 30.34Q46.32 30.84 45.24 30.84L45.24 30.84L38.88 30.60L31.64 30.80Q29.48 30.80 29.48 28.96L29.48 28.96Q29.48 27.56 29.58 24.38Q29.68 21.20 29.68 16.40L29.68 16.40Q27.00 16.40 27.00 14.64L27.00 14.64Q27.00 13.72 27.76 13.26Q28.52 12.80 29.68 12.80L29.68 12.80Q29.60 5.32 29.40 3.80L29.40 3.80Q28.92 3.04 28.92 2.20L28.92 2.20Q28.92 0.40 31.40 0.40L31.40 0.40L38.76 0.60L45.12 0.36Q46.20 0.36 46.86 0.86Q47.52 1.36 47.52 2.24Q47.52 3.12 46.86 3.62Q46.20 4.12 45.12 4.12ZM69.16 20.96L69.16 20.96L64 20.84Q60.16 20.84 58.40 20.92L58.40 20.92Q57.96 22.24 57.14 25.06Q56.32 27.88 55.80 29.44Q55.28 31 53.96 31L53.96 31Q53.20 31 52.74 30.52Q52.28 30.04 52.28 29.46Q52.28 28.88 52.34 28.52Q52.40 28.16 52.62 27.44Q52.84 26.72 53.08 26.08L53.08 26.08Q54.24 22.64 54.76 21.04L54.76 21.04Q53.60 21.04 52.94 20.54Q52.28 20.04 52.28 19.20L52.28 19.20Q52.28 17.32 55.24 17.32L55.24 17.32L55.96 17.32Q59.80 6.60 60.38 5.06Q60.96 3.52 61.04 3.28Q61.12 3.04 61.30 2.58Q61.48 2.12 61.62 1.90Q61.76 1.68 61.96 1.36Q62.16 1.04 62.34 0.86Q62.52 0.68 62.76 0.52L62.76 0.52Q63.28 0.20 63.86 0.20Q64.44 0.20 64.80 0.32Q65.16 0.44 65.48 0.76Q65.80 1.08 66.02 1.44Q66.24 1.80 66.54 2.56Q66.84 3.32 67.08 3.96L67.08 3.96Q69 9.84 71.88 17.32L71.88 17.32L73.32 17.28Q74.36 17.28 75.02 17.84Q75.68 18.40 75.68 19.24L75.68 19.24Q75.68 21 73.04 21.12L73.04 21.12Q73.44 22.40 74.12 24.36L74.12 24.36Q75.68 28.60 75.68 29.26Q75.68 29.92 75.22 30.46Q74.76 31 73.96 31L73.96 31Q72.52 31 71.88 29.44L71.88 29.44Q71.20 27.48 69.16 20.96ZM60.44 14.44L59.40 17.48Q61.96 17.56 64.34 17.56Q66.72 17.56 68.16 17.48L68.16 17.48Q63.96 5.40 63.88 5.40L63.88 5.40Q63.64 5.40 60.44 14.44L60.44 14.44ZM82.80 26.16L82.92 15.56L82.72 5.16Q80.96 5 80.96 3.50Q80.96 2 84.12 1.02Q87.28 0.04 90.66 0.04Q94.04 0.04 96.96 1.36Q99.88 2.68 101.64 4.92L101.64 4.92Q105.28 9.48 105.28 15.72L105.28 15.72Q105.28 21.80 101.80 26.28L101.80 26.28Q100.08 28.52 97.24 29.86Q94.40 31.20 90.48 31.20Q86.56 31.20 83.68 30.20Q80.80 29.20 80.80 27.64L80.80 27.64Q80.80 26.16 82.80 26.16L82.80 26.16ZM101.44 15.42Q101.44 10.56 98.58 7.02Q95.72 3.48 90.32 3.48L90.32 3.48Q88.04 3.48 86.68 4.16L86.68 4.16Q86.56 6.64 86.56 14.98Q86.56 23.32 86.76 27.20L86.76 27.20Q88.20 27.72 90.80 27.72Q93.40 27.72 95.50 26.68Q97.60 25.64 98.84 23.88L98.84 23.88Q101.44 20.28 101.44 15.42ZM128.72 4.12L128.72 4.12L122.36 3.88Q119.28 3.88 116.88 4.08L116.88 4.08L116.88 12.96Q117.64 13 119.52 13L119.52 13L126.68 12.80Q127.76 12.80 128.40 13.30Q129.04 13.80 129.04 14.64L129.04 14.64Q129.04 16.40 126.68 16.40L126.68 16.40L119.52 16.24Q117.80 16.24 116.88 16.28L116.88 16.28L116.88 19.44Q116.88 25.28 117.04 27.12L117.04 27.12Q119.44 27.32 122.48 27.32L122.48 27.32Q122.48 27.32 128.84 27.08L128.84 27.08Q129.92 27.08 130.58 27.58Q131.24 28.08 131.24 28.96Q131.24 29.84 130.58 30.34Q129.92 30.84 128.84 30.84L128.84 30.84L122.48 30.60L115.24 30.80Q113.08 30.80 113.08 28.96L113.08 28.96Q113.08 27.56 113.18 24.38Q113.28 21.20 113.28 16.40L113.28 16.40Q110.60 16.40 110.60 14.64L110.60 14.64Q110.60 13.72 111.36 13.26Q112.12 12.80 113.28 12.80L113.28 12.80Q113.20 5.32 113.00 3.80L113.00 3.80Q112.52 3.04 112.52 2.20L112.52 2.20Q112.52 0.40 115.00 0.40L115.00 0.40L122.36 0.60L128.72 0.36Q129.80 0.36 130.46 0.86Q131.12 1.36 131.12 2.24Q131.12 3.12 130.46 3.62Q129.80 4.12 128.72 4.12ZM153.88 9.28L153.88 9.28Q153.88 6.64 151.88 5.04Q149.88 3.44 146.08 3.44L146.08 3.44Q144.20 3.44 142.20 4.16L142.20 4.16Q142.08 7.76 142.08 11.02Q142.08 14.28 142.12 14.80L142.12 14.80Q144.04 14.44 145.72 14.44Q147.40 14.44 149.52 14.80L149.52 14.80Q150.96 14.40 152.42 12.78Q153.88 11.16 153.88 9.28ZM158.88 27.56L158.88 27.56L159.52 27.48Q159.88 27.48 159.88 28.44Q159.88 29.40 159.04 30.20Q158.20 31 157.16 31L157.16 31Q155.36 31 153.72 28.68L153.72 28.68Q151.60 25.80 148.32 18.56L148.32 18.56Q146.52 18.80 144.24 18.80L144.24 18.80L142.16 18.64Q142.16 21.44 142.28 24.30Q142.40 27.16 142.40 28.36L142.40 28.36Q142.40 31.20 140.36 31.20Q138.32 31.20 138.32 28.36L138.32 28.36Q138.32 26.76 138.46 22.72Q138.60 18.68 138.60 14.82Q138.60 10.96 138.36 5.52L138.36 5.52Q136.60 5.16 136.60 3.72L136.60 3.72Q136.60 2 139.92 1Q143.24 0 145.84 0L145.84 0Q151.68 0 154.70 2.62Q157.72 5.24 157.72 9.04L157.72 9.04Q157.72 11.48 156.08 13.82Q154.44 16.16 151.80 17.40L151.80 17.40Q153.64 21.64 155.14 24.04Q156.64 26.44 157.40 27Q158.16 27.56 158.88 27.56Z" transform="translate(0 39.2) scale(1.305)"></path><g fill="#fea701" color="#fea701" transform="translate(223.641 0) scale(1.5983068)"><svg width="50.0" height="50.0" x="0.0" y="0.0" viewBox="0 0 50 50"><g><path fill="currentColor" d="M28.199,49.083L7.167,41.428L21.911,0.917l21.035,7.654L28.199,49.083z M10.739,39.762l15.794,5.749   l12.84-35.273L23.577,4.489L10.739,39.762z"></path><g><line fill="currentColor" x1="16.541" y1="21.565" x2="34.064" y2="27.944"></line><rect x="15.978" y="23.361" transform="matrix(0.9397 0.3421 -0.3421 0.9397 9.9938 -7.1616)" fill="currentColor" width="18.649" height="2.787"></rect></g><g><circle fill="currentColor" cx="26.674" cy="10.946" r="2.19"></circle><circle fill="currentColor" cx="30.522" cy="19.588" r="2.19"></circle></g><g><circle fill="currentColor" cx="21.563" cy="34.596" r="2.19"></circle><g><circle fill="currentColor" cx="24.368" cy="41.12" r="2.19"></circle><circle fill="currentColor" cx="15.22" cy="37.79" r="2.189"></circle></g><g><circle fill="currentColor" cx="18.758" cy="28.071" r="2.19"></circle><circle fill="currentColor" cx="27.905" cy="31.4" r="2.19"></circle></g></g></g></svg></g></svg>